<?xml version="1.0" encoding="UTF-8"?>
<svg id="Layer_1" data-name="Layer 1" xmlns="http://www.w3.org/2000/svg" viewBox="0 0 153.98 129.72">
  <defs>
    <style>
      .cls-1 {
        fill: #fff;
      }

      .cls-2 {
        fill: #009444;
      }

      .cls-3 {
        fill: #ef3642;
      }

      .cls-4 {
        fill: #2e3192;
      }

      .cls-5 {
        fill: #00a14b;
      }
    </style>
  </defs>
  <rect class="cls-1" width="153.98" height="129.72"/>
  <polygon class="cls-4" points="127.06 71.13 126.03 115.92 116.79 117.08 113.72 73.48 127.06 71.13"/>
  <path class="cls-3" d="M30.23,91.01l10.55-2.04,2.29-18.1,9.15,3.7-4.54,42.79-9.27-5.51,1.98-16.06-.64-1.07-9.49,1.5,1,16.5-9.24,2.58-1.03-17.56-3.59.52c.18-2.15,2.31-3.85,2.59-5.91.41-2.99-1.6-18.11-1-18.82l10.21-2.64,1.04,20.14Z"/>
  <path class="cls-5" d="M89.56,95.9c4.45,4.85,9.56,9.15,14.08,13.97l-6.91,7.48c-4.44-3.98-7.95-8.91-12.07-13.17-.41-.42-2.07-2.33-2.58-1.79l1.83,12.95-11.09,1.81-4.61-33.35,10.78-1.55,1.79,9.29c3.49-1.56,9.88-6.57,6.68-10.84-3.02-4.02-18.52.34-22.84,2.06l1.63-9.21c7.71-.69,16.07-1.67,23.81-1.14,22.84,1.57,11.44,16.53-1.57,22.23-.46.57.72.88,1.07,1.27Z"/>
  <g>
    <g>
      <polygon class="cls-2" points="73.78 11.12 86.14 41.63 79.31 45.78 64.14 17.55 73.78 11.12"/>
      <polygon class="cls-2" points="100.98 19.21 75.56 58.5 68.5 54.74 90.43 14.39 100.98 19.21"/>
    </g>
    <g>
      <polygon class="cls-4" points="107.33 17.11 140.57 12.88 142.64 20.86 110.81 28.53 107.33 17.11"/>
      <polygon class="cls-4" points="132.38 13.42 126.07 56.73 116.76 56.74 118.87 14.08 132.38 13.42"/>
    </g>
    <path class="cls-3" d="M61.18,54c-.34-1.17-9.8-36.7-9.02-37.64.43-.52,2.04-.38.43-.52-7.22-.62-11.6-1.12-14.11-1.46,0,.05,0,.1,0,.14,1.46.53,2.85,1.41,2.49,2.68-1.45,5.1-4.64,13.63-6.12,18.49-.14.47-.13.87-.64.68l-6.04-18.19c-2.08-7.49,10.42-3.19-8.66-5.58-1.17-.15-1.58,5.52-1.66,7.91-.17,4.9-4.44,29.43-5.34,33.23l9.83,1.75c.26-1.58,1.08-4.99,1.46-7.12.47-2.64,1.1-6.9,1.48-9.72.18-1.32.43-2.84.73-4.98.22-1.55.4-2.73.39-3.22.07.47.33,1.64,1.11,3.61q3.09,7.82,4.94,12.22c.15.35.28.65.4.93h0s6.21,2.78,6.21,2.78c3.38-8.67,6.67-16.92,6.95-17.23.14-.15.68-1.68.85-1.62.61.23,3.86,13.99,4.38,15.89,1.29,4.78,2.09,7.96,2.61,10.01l3.87-1c.21-.06.46-.12.74-.19l1.7-.44c.35-.1.73-.22,1.13-.37,0,0,0,.01.01.02.05-.04.1-.07.17-.08-.05-.22-.14-.54-.26-.97Z"/>
  </g>
</svg>